<?xml version="1.0" encoding="UTF-8"?>
<svg width="120" height="120" viewBox="0 0 120 120" fill="none" xmlns="http://www.w3.org/2000/svg">
  <defs>
    <linearGradient id="leafGrad" x1="0" y1="0" x2="120" y2="120" gradientUnits="userSpaceOnUse">
      <stop stop-color="#7BC96F"/>
      <stop offset="1" stop-color="#3E8E44"/>
    </linearGradient>
    <linearGradient id="shellGrad" x1="20" y1="48" x2="100" y2="90" gradientUnits="userSpaceOnUse">
      <stop stop-color="#F6C54F"/>
      <stop offset="1" stop-color="#D99C38"/>
    </linearGradient>
    <linearGradient id="baseGrad" x1="28" y1="86" x2="92" y2="108" gradientUnits="userSpaceOnUse">
      <stop stop-color="#E3A73C"/>
      <stop offset="1" stop-color="#B57E25"/>
    </linearGradient>
  </defs>
  <rect width="120" height="120" rx="24" fill="transparent"/>
  <path d="M28 76C28 76 36 46 60 46C84 46 92 76 92 76C92 94 90 106 60 106C30 106 28 94 28 76Z" fill="url(#shellGrad)" stroke="#E6B449" stroke-width="3"/>
  <path d="M37 76C37 76 45 54 60 54C75 54 83 76 83 76C83 88 75 98 60 98C45 98 37 88 37 76Z" fill="#F9D16B"/>
  <path d="M54 54C54 54 56 42 60 32C64 42 66 54 66 54" stroke="#518E37" stroke-width="5" stroke-linecap="round"/>
  <path d="M60 30C58 24 62 18 68 18C74 18 78 24 76 30C76 34 72 38 68 38C64 38 60 34 60 30Z" fill="#7BC96F"/>
  <path d="M60 34L73 18" stroke="#4C7B35" stroke-width="6" stroke-linecap="round"/>
  <path d="M41 44C32 40 28 31 34 24C40 17 54 20 59 29" stroke="#4C7B35" stroke-width="6" stroke-linecap="round"/>
  <path d="M79 42C88 38 92 29 86 22C80 15 66 18 61 27" stroke="#4C7B35" stroke-width="6" stroke-linecap="round"/>
  <line x1="50" y1="68" x2="70" y2="68" stroke="#D49E34" stroke-width="3" stroke-linecap="round"/>
  <line x1="50" y1="74" x2="70" y2="74" stroke="#D49E34" stroke-width="3" stroke-linecap="round"/>
  <line x1="50" y1="80" x2="70" y2="80" stroke="#D49E34" stroke-width="3" stroke-linecap="round"/>
  <ellipse cx="60" cy="102" rx="26" ry="8" fill="url(#baseGrad)"/>
  <circle cx="28" cy="38" r="4" fill="#CEB349" opacity="0.9"/>
  <circle cx="92" cy="28" r="5" fill="#7BC96F" opacity="0.9"/>
  <circle cx="78" cy="16" r="3" fill="#4C7B35" opacity="0.9"/>
</svg>
