<?xml version="1.0" encoding="UTF-8"?>
<svg width="120" height="120" viewBox="0 0 120 120" fill="none" xmlns="http://www.w3.org/2000/svg">
  <defs>
    <linearGradient id="shellGradient" x1="20" y1="38" x2="100" y2="98" gradientUnits="userSpaceOnUse">
      <stop stop-color="#F6CB60"/>
      <stop offset="1" stop-color="#CCA134"/>
    </linearGradient>
    <linearGradient id="seedGradient" x1="28" y1="42" x2="92" y2="102" gradientUnits="userSpaceOnUse">
      <stop stop-color="#FCE18A"/>
      <stop offset="1" stop-color="#E1A335"/>
    </linearGradient>
    <linearGradient id="stemGradient" x1="60" y1="24" x2="60" y2="76" gradientUnits="userSpaceOnUse">
      <stop stop-color="#6BC07F"/>
      <stop offset="1" stop-color="#3B7C44"/>
    </linearGradient>
  </defs>

  <rect width="120" height="120" rx="30" fill="transparent"/>

  <path d="M34 76Q34 44 60 44Q86 44 86 76Q86 98 60 98Q34 98 34 76Z" fill="url(#seedGradient)" stroke="#C18C2B" stroke-width="3"/>
  <path d="M40 84H80" stroke="#C18C2B" stroke-width="4" stroke-linecap="round" opacity="0.7"/>
  <path d="M42 72H78" stroke="#C18C2B" stroke-width="3" stroke-linecap="round" opacity="0.6"/>
  <path d="M44 64H76" stroke="#C18C2B" stroke-width="3" stroke-linecap="round" opacity="0.6"/>
  <path d="M46 56H74" stroke="#C18C2B" stroke-width="3" stroke-linecap="round" opacity="0.6"/>
  <path d="M48 48H72" stroke="#C18C2B" stroke-width="3" stroke-linecap="round" opacity="0.6"/>

  <path d="M60 42C64 42 66 34 64 28C64 22 58 18 52 18C46 18 40 22 40 28C38 34 38 42 42 42" fill="url(#stemGradient)"/>
  <path d="M60 38C62 34 66 30 74 32C82 34 84 44 80 50C76 56 70 52 68 48C66 44 62 42 60 38Z" fill="#66B966"/>
  <path d="M60 38C58 34 54 30 46 32C38 34 36 44 40 50C44 56 50 52 52 48C54 44 58 42 60 38Z" fill="#66B966"/>
  <path d="M60 44V56" stroke="#3B7C44" stroke-width="6" stroke-linecap="round"/>

  <path d="M38 104C48 108 72 108 82 104" stroke="#C18C2B" stroke-width="6" stroke-linecap="round"/>
  <path d="M52 98L60 54" stroke="#4D8A45" stroke-width="8" stroke-linecap="round"/>

  <circle cx="26" cy="34" r="4" fill="#D7B243" opacity="0.9"/>
  <circle cx="90" cy="28" r="5" fill="#81C57F" opacity="0.9"/>
  <circle cx="78" cy="16" r="3" fill="#499548" opacity="0.9"/>
</svg>
